# xmcd
#
# Track frame offsets:
#	150
#	17569
#	29719
#	50160
#	63426
#	83752
#	96818
#	110927
#
# Disc length: 1659 seconds
#
# Revision: 0
# Processed by: cddbd v1.5.2PL0 Copyright (c) Steve Scherf et al.
# Submitted via: EZCDAudioConverter 2.1.7.1
#
DISCID=6c067908
DTITLE=Stone Coal White
DYEAR=1900
DGENRE=
TTITLE0=You Know
TTITLE1=Stone Coal White
TTITLE2=Hell Below
TTITLE3=People's
TTITLE4=Warm Up
TTITLE5=Move Your Hand
TTITLE6=Ain't No Sunshine
TTITLE7=Free
EXTD=
EXTT0=
EXTT1=
EXTT2=
EXTT3=
EXTT4=
EXTT5=
EXTT6=
EXTT7=
PLAYORDER=
